<svg version="1.2" xmlns="http://www.w3.org/2000/svg" viewBox="0 0 238 180" width="238" height="180">
	<title>St_Ambulance_Wens_logo_fc-ai</title>
	<defs>
		<radialGradient id="g1" cx="63.8" cy="165.9" r="30.9" gradientUnits="userSpaceOnUse">
			<stop offset="0" stop-color="#00b4a8"/>
			<stop offset="1" stop-color="#ffffff"/>
		</radialGradient>
		<radialGradient id="g2" cx="63.8" cy="101.2" r="55.4" gradientUnits="userSpaceOnUse">
			<stop offset=".4" stop-color="#b0d243"/>
			<stop offset=".9" stop-color="#00b4a8"/>
		</radialGradient>
		<radialGradient id="g3" cx="63.7" cy="103.8" r="34.6" gradientUnits="userSpaceOnUse">
			<stop offset="0" stop-color="#ffffff"/>
			<stop offset=".8" stop-color="#e2e2e3"/>
		</radialGradient>
		<linearGradient id="g4" x1="101.5" y1="3.1" x2="146.9" y2="21" gradientUnits="userSpaceOnUse">
			<stop offset="0" stop-color="#00b4a8"/>
			<stop offset="1" stop-color="#0e778e"/>
		</linearGradient>
	</defs>
	<style>
		tspan { white-space:pre } 
		.s0 { fill: url(#g1) } 
		.s1 { fill: url(#g2) } 
		.s2 { fill: url(#g3) } 
		.s3 { opacity: .3;fill: #ffffff } 
		.s4 { opacity: .2;mix-blend-mode: multiply;fill: #00b4a8 } 
		.s5 { fill: url(#g4) } 
		.t6 { font-size: 26px;fill: #b0d243;font-family: "Museo" } 
		.t7 { font-size: 26px;fill: #2c2e35;font-family: "Myriad Pro" } 
		.t8 { font-size: 26px;fill: #00b4a8;font-family: "Museo" } 
	</style>
	<g id="Laag 1">
		<g id="&lt;Group&gt;">
			<g id="&lt;Group&gt;" style="opacity: .5;mix-blend-mode: multiply">
				<ellipse id="&lt;Path&gt;" class="s0" cx="63.8" cy="165.9" rx="30.9" ry="6.4"/>
			</g>
			<circle id="&lt;Path&gt;" class="s1" cx="63.8" cy="103.8" r="46.2"/>
			<path id="&lt;Compound Path&gt;" class="s2" d="m81.8 103.8l16.4 9.5l-9 15.6l-16.4-9.5v19h-18.1v-19l-16.4 9.5l-9-15.6l16.4-9.5l-16.4-9.5l9-15.6l16.4 9.5v-19h18.1v19l16.4-9.5l9 15.6z"/>
			<path id="&lt;Compound Path&gt;" class="s3" d="m18 100.1c1.8-23.8 21.6-42.5 45.8-42.5c24.2 0 44 18.7 45.8 42.5c-4.5-21.2-21-40.1-45.8-40.1c-24.6 0-41.3 18.9-45.8 40.1z"/>
			<path id="&lt;Compound Path&gt;" class="s4" d="m63.8 147.6c24.8 0 41.3-18.9 45.8-40.1c-1.8 23.8-21.6 42.5-45.8 42.5c-24.2 0-44-18.7-45.8-42.5c4.5 21.2 21.2 40.1 45.8 40.1z"/>
			<g id="&lt;Group&gt;">
				<g id="&lt;Group&gt;">
					<path id="&lt;Compound Path&gt;" fill-rule="evenodd" class="s5" d="m64.6 116.3q0.5-0.3 1-0.6q-0.7 14.8-1.8 20.5q-1-5.1-1.7-18.1c0.2-0.2 0.6-0.5 1.2-0.9c0.3-0.2 0.8-0.5 1.3-0.9zm40.1-62.3c-3.6 14.1-13.3 21-25.3 27.1c-10.2 5.2-16 6.9-19 9.3c-0.5 0.4-0.3 0.7-0.3 3.1q0.1 4 0.2 7.6c-2.8-2.2-5.4-4.6-5.6-7.3c-0.7-8 11.5-9.5 29.4-17.7q17.9-8.2 20-22.9c0-0.5 0.2-1 0.6-0.9c0.4 0.2 0.1 1.2 0 1.7zm-19.1-8.5q4.1-4.3 15.4-6q-7-14.1 6.1-31.9q10.9 12 7.4 30.2q-13.2 18.9-28.9 7.7zm-19.6 82.2q2.2 2.6 4.6 4.9q-1.1-0.7-4.8-3.5q0.1-0.7 0.2-1.4zm-4.8-45.8v-5.1c-0.1-0.8 0.7-2.5 2.6-1.4c1.9 1.1 2.6 2.6 2.6 4.4v2.3q-2.9 1.1-5.2 2.3q0-1.3 0-2.5zm10.5 24.5c1.1 4.3-7 8.3-9.1 9.8c-1.7 1.3-1.7 1.4-1.6 3.5q0.2 3.3 0.5 5.9c-8.7-7.9 1.4-13.6 2.7-14.6c1.4-1.1 2.7-2.3 3-3.3c0.1-0.2 0.1-0.4 0.1-0.8c0-1.3 0-3.6 0-6.7c2.1 2 3.8 4.1 4.4 6.2zm44.6-60q1 6.5-3.1 11.2q-7.5-8.7 2.6-18.5q10.9-7.9 25.1-7.7q-8.2 11.2-24.6 15zm-53.3 63.9q-0.5 0.4-1.3 1c-0.2-5.7-0.4-12.4-0.5-20.3c1.3-0.8 3-1.6 5.2-2.6c-0.1 7.4-0.2 13.8-0.4 19.2c-0.4 0.6-1.2 1.4-2.5 2.4q-0.2 0.2-0.5 0.3z"/>
				</g>
			</g>
		</g>
		<text id="Sanitka 
" style="transform: matrix(1,0,0,1,126.558,97.198)" >
			<tspan x="0" y="0" class="t6">Sanitka</tspan><tspan  y="0" class="t7"> 
</tspan>
		</text>
		<text id="Přání
" style="transform: matrix(1,0,0,1,127.39,124.286)" >
			<tspan x="0" y="0" class="t8">Přání
</tspan>
		</text>
	</g>
</svg>