<svg version="1.2" xmlns="http://www.w3.org/2000/svg" viewBox="0 0 238 180" width="238" height="180">
	<title>logo-svg</title>
	<defs>
		<radialGradient id="g1" cx="63.8" cy="165.9" r="30.9" gradientUnits="userSpaceOnUse">
			<stop offset="0" stop-color="#00b4a8"/>
			<stop offset="1" stop-color="#ffffff"/>
		</radialGradient>
		<radialGradient id="g2" cx="63.8" cy="101.2" r="55.4" gradientUnits="userSpaceOnUse">
			<stop offset=".4" stop-color="#b0d243"/>
			<stop offset=".9" stop-color="#00b4a8"/>
		</radialGradient>
		<radialGradient id="g3" cx="63.7" cy="103.8" r="34.6" gradientUnits="userSpaceOnUse">
			<stop offset="0" stop-color="#ffffff"/>
			<stop offset=".8" stop-color="#e2e2e3"/>
		</radialGradient>
		<linearGradient id="g4" x1="101.5" y1="3.1" x2="146.9" y2="21" gradientUnits="userSpaceOnUse">
			<stop offset="0" stop-color="#00b4a8"/>
			<stop offset="1" stop-color="#0e778e"/>
		</linearGradient>
	</defs>
	<style>
		.s0 { mix-blend-mode: multiply;fill: url(#g1) } 
		.s1 { fill: url(#g2) } 
		.s2 { fill: url(#g3) } 
		.s3 { opacity: .3;fill: #ffffff } 
		.s4 { opacity: .2;mix-blend-mode: multiply;fill: #00b4a8 } 
		.s5 { fill: url(#g4) } 
		.s6 { fill: #b0d243 } 
		.s7 { fill: #00b4a8 } 
	</style>
	<g id="Laag 1">
		<g id="&lt;Group&gt;">
			<g id="&lt;Group&gt;" style="opacity: .5">
				<ellipse id="&lt;Path&gt;" class="s0" cx="63.8" cy="165.9" rx="30.9" ry="6.4"/>
			</g>
			<circle id="&lt;Path&gt;" class="s1" cx="63.8" cy="103.8" r="46.2"/>
			<path id="&lt;Compound Path&gt;" class="s2" d="m81.8 103.8l16.4 9.5-9 15.6-16.4-9.5v19h-18.1v-19l-16.4 9.5-9-15.6 16.4-9.5-16.4-9.5 9-15.6 16.4 9.5v-19h18.1v19l16.4-9.5 9 15.6z"/>
			<path id="&lt;Compound Path&gt;" class="s3" d="m18 100.1c1.8-23.8 21.6-42.5 45.8-42.5 24.2 0 44 18.7 45.8 42.5-4.5-21.2-21-40.1-45.8-40.1-24.6 0-41.3 18.9-45.8 40.1z"/>
			<path id="&lt;Compound Path&gt;" class="s4" d="m63.8 147.6c24.8 0 41.3-18.9 45.8-40.1-1.8 23.8-21.6 42.5-45.8 42.5-24.2 0-44-18.7-45.8-42.5 4.5 21.2 21.2 40.1 45.8 40.1z"/>
			<g id="&lt;Group&gt;">
				<g id="&lt;Group&gt;">
					<path id="&lt;Compound Path&gt;" fill-rule="evenodd" class="s5" d="m64.6 116.3q0.5-0.3 1-0.6-0.7 14.8-1.8 20.5-1-5.1-1.7-18.1 0.3-0.3 1.2-0.9c0.3-0.2 0.8-0.5 1.3-0.9zm40.1-62.3c-3.6 14.1-13.3 21-25.3 27.1-10.2 5.2-16 6.9-19 9.3-0.5 0.4-0.3 0.7-0.3 3.1q0.1 4 0.2 7.6c-2.8-2.2-5.4-4.6-5.6-7.3-0.7-8 11.5-9.5 29.4-17.7q17.9-8.2 20-22.9c0-0.5 0.2-1 0.6-0.9 0.4 0.2 0.1 1.2 0 1.7zm-19.1-8.5q4.1-4.3 15.4-6-7-14.1 6.1-31.9 10.9 12 7.4 30.2-13.2 18.9-28.9 7.7zm-19.6 82.2q2.2 2.6 4.6 4.9-1.1-0.7-4.8-3.5 0.1-0.7 0.2-1.4zm-4.8-45.8v-5.1c-0.1-0.8 0.7-2.5 2.6-1.4 1.9 1.1 2.6 2.6 2.6 4.4v2.3q-2.9 1.1-5.2 2.3 0-1.3 0-2.5zm10.5 24.5c1.1 4.3-7 8.3-9.1 9.8-1.7 1.3-1.7 1.4-1.6 3.5q0.2 3.3 0.5 5.9c-8.7-7.9 1.4-13.6 2.7-14.6 1.4-1.1 2.7-2.3 3-3.3 0.1-0.2 0.1-0.4 0.1-0.8 0-1.3 0-3.6 0-6.7 2.1 2 3.8 4.1 4.4 6.2zm44.6-60q1 6.5-3.1 11.2-7.5-8.7 2.6-18.5 10.9-7.9 25.1-7.7-8.2 11.2-24.6 15zm-53.3 63.9q-0.5 0.4-1.3 1c-0.2-5.7-0.4-12.4-0.5-20.3 1.3-0.8 3-1.6 5.2-2.6-0.1 7.4-0.2 13.8-0.4 19.2-0.4 0.6-1.2 1.4-2.5 2.4q-0.2 0.2-0.5 0.3z"/>
				</g>
			</g>
		</g>
		<g id="Sanitka  ">
			<path id="Sanitka" class="s6" aria-label="Sanitka"  d="m127.4 94.6c0 0 2.2 2.7 6.1 2.7 3.7 0 5.8-2.4 5.8-5.2 0-6-8.8-5.2-8.8-8.9 0-1.4 1.3-2.5 3.2-2.5 1.5 0 2.9 0.7 2.9 1.7v0.8h2.4v-1.5c0-2.5-3.3-3.4-5.3-3.4-3.4 0-5.8 2.2-5.8 4.9 0 5.8 8.8 5.2 8.8 9 0 1.7-1.4 2.7-3.1 2.7-2.8 0-4.6-2.2-4.6-2.2zm13.9-1.2c0 2.6 2.2 4 4.5 4 3.1 0 4.2-2.6 4.2-2.6 0 0 0 0.3 0 0.7 0 1 0.4 1.6 1.6 1.6h2.4v-2.2h-1.1c-0.4 0-0.6-0.2-0.6-0.6v-5.6c0-2.9-1.1-5.1-5.4-5.1-1.2 0-4.5 0.3-4.5 2.5v1.3h2.3v-0.8c0-0.9 1.6-1 2.2-1 2.1 0 2.9 0.8 2.9 3.1v0.2h-0.6c-2.2 0-7.9 0.2-7.9 4.5zm2.6-0.2c0-2.4 3.4-2.5 5.3-2.5h0.6v0.5c0 1.9-1.3 4.1-3.5 4.1-1.6 0-2.4-1-2.4-2.1zm12.8 3.9h2.5v-6.2c0-0.7 0.1-1.3 0.3-1.8 0.5-1.9 2.1-3.2 4.1-3.2 2.1 0 2.5 1.5 2.5 3.3v6.2c0 1.2 0.5 1.7 1.7 1.7h2.4v-2.2h-1c-0.4 0-0.6-0.2-0.6-0.6v-5.7c0-3.3-1.4-5-4.5-5-2.9 0-4.4 1.9-5 3 0 0 0-0.3 0-0.8v-0.4c0-1-0.5-1.5-1.6-1.5h-2.4v2.2h1c0.4 0 0.6 0.1 0.6 0.5zm16.5-15.7h2.2v-2.6h-2.2zm-0.1 14c0 1.2 0.5 1.7 1.7 1.7h2.4v-2.2h-1c-0.4 0-0.6-0.1-0.6-0.5v-8.8c0-1.2-0.5-1.7-1.7-1.7h-2.4v2.2h1c0.4 0 0.6 0.2 0.6 0.6zm7.1-3.2c0 4.4 3.4 4.9 5.1 4.9 0.5 0 0.8 0 0.8 0v-2.2c0 0-0.2 0-0.6 0-0.9 0-2.7-0.3-2.7-3v-6h3.1v-2h-3.1v-3.6h-2.5v3.6h-1.8v2h1.7zm8.8 4.8h2.5v-6.2h1c0.4 0 1 0.1 1.3 0.6l2.4 4.4c0.6 1 1 1.2 2.2 1.2h1.8v-2.1h-0.8c-0.7 0-0.9-0.1-1.1-0.6l-2-3.5c-0.4-0.8-0.9-1-0.9-1v-0.1c0 0 0.4-0.1 1-0.9l3.6-4.9h-2.9l-3 4.2c-0.4 0.5-0.9 0.6-1.4 0.6h-1.2v-8.5c0-1.2-0.5-1.5-1.6-1.5h-2.5v2.1h1c0.4 0 0.6 0.2 0.6 0.6zm12.4-3.7c0 2.6 2.2 4 4.4 4 3.2 0 4.2-2.6 4.2-2.6h0.1c0 0-0.1 0.3-0.1 0.8 0 0.9 0.5 1.5 1.7 1.5h2.3v-2.2h-1c-0.4 0-0.6-0.1-0.6-0.5v-5.6c0-2.9-1.1-5.2-5.4-5.2-1.3 0-4.6 0.3-4.6 2.5v1.3h2.4v-0.8c0-0.8 1.5-1 2.2-1 2 0 2.9 0.9 2.9 3.2v0.1h-0.6c-2.2 0-7.9 0.3-7.9 4.5zm2.5-0.1c0-2.4 3.5-2.5 5.4-2.5h0.6v0.4c0 1.9-1.4 4.2-3.5 4.2-1.7 0-2.5-1.1-2.5-2.1z"/>
		</g>
		<path id="Přání " class="s7" aria-label="Přání
"  d="m130.1 124h2.6v-6.8h3.8c3.3 0 5.7-2.3 5.7-5.8 0-3.5-2.4-5.8-5.7-5.8h-8.1v2.3h1.7zm2.6-9v-7.1h3.4c2.1 0 3.4 1.3 3.4 3.5 0 2.2-1.3 3.6-3.5 3.6zm12.4 9h2.5v-5.4c0-0.8 0.1-1.6 0.3-2.4 0.6-1.9 2.1-3.1 3.7-3.1 0.4 0 0.8 0.1 0.8 0.1v-2.5c0 0-0.4 0-0.7 0-2.1 0-3.6 1.5-4.2 3.4 0 0 0-0.4 0-0.9v-0.8c0-1.1-0.5-1.6-1.7-1.6h-2.4v2.2h1.1c0.4 0 0.6 0.2 0.6 0.6zm1.8-15.1h2.3l2.3-3.3h-2.1l-1.3 2.1h-0.1l-1.3-2.1h-2.1zm6.1 11.4c0 2.6 2.2 4 4.5 4 3.1 0 4.2-2.6 4.2-2.6 0 0 0 0.3 0 0.7 0 1 0.4 1.6 1.6 1.6h2.4v-2.2h-1.1c-0.4 0-0.6-0.2-0.6-0.6v-5.6c0-2.9-1.1-5.1-5.4-5.1-1.2 0-4.5 0.3-4.5 2.5v1.3h2.3v-0.8c0-0.9 1.6-1 2.2-1 2.1 0 2.9 0.8 2.9 3.1v0.2h-0.6c-2.2 0-7.9 0.2-7.9 4.5zm2.6-0.2c0-2.4 3.4-2.5 5.3-2.5h0.6v0.4c0 2-1.3 4.2-3.5 4.2-1.6 0-2.4-1-2.4-2.1zm2.3-11.2h2l2.5-3.3h-2.6zm10.5 15.1h2.5v-6.2c0-0.7 0.1-1.3 0.3-1.8 0.5-1.9 2.1-3.2 4.1-3.2 2.1 0 2.5 1.5 2.5 3.3v6.2c0 1.2 0.5 1.7 1.7 1.7h2.5v-2.2h-1.1c-0.4 0-0.6-0.2-0.6-0.6v-5.7c0-3.3-1.4-5-4.5-5-2.9 0-4.4 1.9-5 3 0 0 0-0.3 0-0.8v-0.4c0-1-0.5-1.5-1.6-1.5h-2.4v2.2h1c0.4 0 0.6 0.1 0.6 0.5zm16.4-1.6c0 1.1 0.5 1.6 1.7 1.6h2.5v-2.1h-1.1c-0.4 0-0.6-0.2-0.6-0.6v-8.8c0-1.1-0.5-1.6-1.6-1.6h-2.5v2.1h1c0.4 0 0.6 0.2 0.6 0.6zm0.1-13.4h1.9l2.5-3.3h-2.5z"/>
	</g>
</svg>