<svg version="1.2" xmlns="http://www.w3.org/2000/svg" viewBox="0 0 371 146" width="371" height="146">
	<title>logo-svg</title>
	<defs>
		<radialGradient id="g1" cx="293.8" cy="160.9" r="30.9" gradientUnits="userSpaceOnUse">
			<stop offset="0" stop-color="#00b4a8"/>
			<stop offset="1" stop-color="#ffffff"/>
		</radialGradient>
		<radialGradient id="g2" cx="293.8" cy="96.2" r="55.4" gradientUnits="userSpaceOnUse">
			<stop offset=".4" stop-color="#b0d243"/>
			<stop offset=".9" stop-color="#00b4a8"/>
		</radialGradient>
		<radialGradient id="g3" cx="293.7" cy="98.8" r="34.6" gradientUnits="userSpaceOnUse">
			<stop offset="0" stop-color="#ffffff"/>
			<stop offset=".8" stop-color="#e2e2e3"/>
		</radialGradient>
		<linearGradient id="g4" x1="331.5" y1="-1.9" x2="376.9" y2="16" gradientUnits="userSpaceOnUse">
			<stop offset="0" stop-color="#00b4a8"/>
			<stop offset="1" stop-color="#0e778e"/>
		</linearGradient>
	</defs>
	<style>
		.s0 { mix-blend-mode: multiply;fill: url(#g1) } 
		.s1 { fill: url(#g2) } 
		.s2 { fill: url(#g3) } 
		.s3 { opacity: .3;fill: #ffffff } 
		.s4 { opacity: .2;mix-blend-mode: multiply;fill: #00b4a8 } 
		.s5 { fill: url(#g4) } 
		.s6 { fill: #b0d243 } 
		.s7 { fill: #00b4a8 } 
	</style>
	<g id="Laag 1">
		<g id="&lt;Group&gt;">
			<g id="&lt;Group&gt;" style="opacity: .5">
				<path id="&lt;Path&gt;" class="s0" d="m293.8 167.3c-17.1 0-30.9-2.9-30.9-6.4 0-3.5 13.8-6.4 30.9-6.4 17.1 0 30.9 2.9 30.9 6.4 0 3.5-13.8 6.4-30.9 6.4z"/>
			</g>
			<path id="&lt;Path&gt;" class="s1" d="m293.8 145c-25.5 0-46.2-20.7-46.2-46.2 0-25.5 20.7-46.2 46.2-46.2 25.5 0 46.2 20.7 46.2 46.2 0 25.5-20.7 46.2-46.2 46.2z"/>
			<path id="&lt;Compound Path&gt;" class="s2" d="m311.8 98.8l16.4 9.5-9 15.6-16.4-9.5v19h-18.1v-19l-16.4 9.5-9-15.6 16.4-9.5-16.4-9.5 9-15.6 16.4 9.5v-19h18.1v19l16.4-9.5 9 15.6z"/>
			<path id="&lt;Compound Path&gt;" class="s3" d="m248 95.1c1.8-23.8 21.6-42.5 45.8-42.5 24.2 0 44 18.7 45.8 42.5-4.5-21.2-21-40.1-45.8-40.1-24.6 0-41.3 18.9-45.8 40.1z"/>
			<path id="&lt;Compound Path&gt;" class="s4" d="m293.8 142.6c24.8 0 41.3-18.9 45.8-40.1-1.8 23.8-21.6 42.5-45.8 42.5-24.2 0-44-18.7-45.8-42.5 4.5 21.2 21.2 40.1 45.8 40.1z"/>
			<g id="&lt;Group&gt;">
				<g id="&lt;Group&gt;">
					<path id="&lt;Compound Path&gt;" fill-rule="evenodd" class="s5" d="m294.6 111.3q0.5-0.3 1-0.6-0.7 14.8-1.8 20.5-1-5.1-1.7-18.1 0.3-0.3 1.2-0.9c0.3-0.2 0.8-0.5 1.3-0.9zm40.1-62.3c-3.6 14.1-13.3 21-25.3 27.1-10.2 5.2-16 6.9-19 9.3-0.5 0.4-0.3 0.7-0.3 3.1q0.1 4 0.2 7.6c-2.8-2.2-5.4-4.6-5.6-7.3-0.7-8 11.5-9.5 29.4-17.7q17.9-8.2 20-22.9c0-0.5 0.2-1 0.6-0.9 0.4 0.2 0.1 1.2 0 1.7zm-19.1-8.5q4.1-4.3 15.4-6-7-14.1 6.1-31.9 10.9 12 7.4 30.2-13.2 18.9-28.9 7.7zm-19.6 82.2q2.2 2.6 4.6 4.9-1.1-0.7-4.8-3.5 0.1-0.7 0.2-1.4zm-4.8-45.8v-5.1c-0.1-0.8 0.7-2.5 2.6-1.4 1.9 1.1 2.6 2.6 2.6 4.4v2.3q-2.9 1.1-5.2 2.3 0-1.3 0-2.5zm10.5 24.5c1.1 4.3-7 8.3-9.1 9.8-1.7 1.3-1.7 1.4-1.6 3.5q0.2 3.3 0.5 5.9c-8.7-7.9 1.4-13.6 2.7-14.6 1.4-1.1 2.7-2.3 3-3.3 0.1-0.2 0.1-0.4 0.1-0.8 0-1.3 0-3.6 0-6.7 2.1 2 3.8 4.1 4.4 6.2zm44.6-60q1 6.5-3.1 11.2-7.5-8.7 2.6-18.5 10.9-7.9 25.1-7.7-8.2 11.2-24.6 15zm-53.3 63.9q-0.5 0.4-1.3 1c-0.2-5.7-0.4-12.4-0.5-20.3 1.3-0.8 3-1.6 5.2-2.6-0.1 7.4-0.2 13.8-0.4 19.2-0.4 0.6-1.2 1.4-2.5 2.4q-0.2 0.2-0.5 0.3z"/>
				</g>
			</g>
		</g>
		<g id="Sanitka  ">
			<path id="Sanitka" fill-rule="evenodd" class="s6" d="m7 73.9c0 0 4.5 5.5 11.5 5.5 4.2 0 7.7-2.5 7.7-6.7 0-9.5-22-8-22-22.5 0-6.7 6-12.2 14.5-12.2 5 0 13.2 2.2 13.2 8.5v3.7h-6v-2c0-2.5-3.4-4.2-7.2-4.2-4.7 0-8 2.7-8 6.2 0 9.3 22 7.3 22 22.2 0 7-5.3 13-14.5 13-9.7 0-15.2-6.7-15.2-6.7zm50.4-9.5h1.5v-0.5c0-5.8-2-7.8-7.3-7.8-1.4 0-5.4 0.3-5.4 2.5v2h-5.8v-3.2c0-5.5 8.3-6.2 11.2-6.2 10.8 0 13.5 5.4 13.5 12.7v13.9q0 1.5 1.5 1.5h2.8v5.5h-6c-3 0-4-1.5-4-4 0-1 0-1.7 0-1.7 0 0-2.8 6.5-10.5 6.5-5.7 0-11.2-3.5-11.2-10 0-10.7 14.2-11.2 19.7-11.2zm-7.2 15.9c5.4 0 8.7-5.4 8.7-10.2v-1.2h-1.5c-4.8 0-13.2 0.2-13.2 6.2 0 2.7 2 5.2 6 5.2zm25.9-21.7c0-1-0.5-1.2-1.5-1.2h-2.5v-5.5h6c2.7 0 4 1.3 4 3.7 0 1.3 0 3 0 3 1.5-2.7 5.2-7.4 12.4-7.4 7.8 0 11.3 4.2 11.3 12.4v14.2q0 1.5 1.5 1.5h2.5v5.5h-6c-3 0-4.3-1.2-4.3-4.2v-15.5c0-4.5-1-8.2-6.2-8.2-5 0-9 3.2-10.2 8q-0.8 1.8-0.8 4.5v15.4h-6.2zm41.1-19.4h5.5v6.5h-5.5zm-0.2 19.7q0-1.5-1.5-1.5h-2.5v-5.5h6c3 0 4.2 1.2 4.2 4.2v22c0 1 0.5 1.2 1.5 1.2h2.5v5.5h-6c-3 0-4.2-1.2-4.2-4.2zm17.7-2h-4.2v-5h4.5v-9h6.2v9h7.7v5h-7.7v14.9c0 6.8 4.5 7.5 6.7 7.5q1.5 0 1.5 0v5.5c0 0-0.7 0-2 0-4.2 0-12.7-1.2-12.7-12.2zm22-11.2q0-1.5-1.5-1.5h-2.5v-5.3h6.2c2.7 0 4 0.8 4 3.8v21.2h3c1.2 0 2.5-0.3 3.5-1.5l7.5-10.5h7.2l-9 12.2c-1.5 2-2.5 2.3-2.5 2.3v0.2c0 0 1.3 0.5 2.3 2.5l4.9 8.7c0.5 1.3 1 1.5 2.8 1.5h2v5.3h-4.5c-3 0-4-0.5-5.5-3l-6-11c-0.7-1.2-2.2-1.5-3.2-1.5h-2.5v15.5h-6.2zm50.6 18.4h1.5v-0.2c0-5.8-2.3-8-7.3-8-1.7 0-5.4 0.5-5.4 2.5v2h-6v-3.3c0-5.4 8.2-6.2 11.4-6.2 10.8 0 13.5 5.7 13.5 13v13.9c0 1 0.5 1.3 1.5 1.3h2.5v5.5h-5.7c-3 0-4.3-1.5-4.3-3.8 0-1.2 0.3-2 0.3-2h-0.3c0 0-2.5 6.5-10.4 6.5-5.5 0-11-3.5-11-9.9 0-10.5 14.2-11.3 19.7-11.3zm-7.2 16.2c5.2 0 8.7-5.7 8.7-10.4v-1h-1.5c-4.8 0-13.5 0.2-13.5 6.2 0 2.5 2 5.2 6.3 5.2z"/>
		</g>
		<path id="Přání " fill-rule="evenodd" class="s7" d="m71.7 99.8h-4.2v-5.7h20.2c8.2 0 14.2 5.7 14.2 14.5 0 8.7-6 14.4-14.2 14.4h-9.5v17h-6.5zm14.8 17.7c5.4 0 8.7-3.5 8.7-9 0-5.5-3.3-8.7-8.5-8.7h-8.5v17.7zm22.7-3.5q0-1.5-1.5-1.5h-2.7v-5.5h6c3 0 4.2 1.3 4.2 4 0 1.3 0 4.3 0 4.3 1.5-4.8 5.2-8.5 10.5-8.5 0.7 0 1.7 0 1.7 0v6.2c0 0-1-0.2-2-0.2-4 0-7.7 2.9-9.2 7.7q-0.7 3-0.7 6v13.4h-6.3zm-1.2-19.9h5.2l3.3 5.2h0.2l3.2-5.2h5.3l-5.8 8.2h-5.7zm40.7 25.5h1.5v-0.5c0-5.8-2-7.8-7.3-7.8-1.5 0-5.5 0.3-5.5 2.5v2h-5.7v-3.2c0-5.5 8.2-6.3 11.2-6.3 10.8 0 13.5 5.5 13.5 12.8v13.9q0 1.5 1.5 1.5h2.7v5.5h-6c-2.9 0-3.9-1.5-3.9-4 0-1 0-1.7 0-1.7 0 0-2.8 6.5-10.5 6.5-5.8 0-11.2-3.5-11.2-10 0-10.7 14.2-11.2 19.7-11.2zm-7.3 15.9c5.5 0 8.8-5.5 8.8-10.5v-0.9h-1.5c-4.8 0-13.3 0.2-13.3 6.2 0 2.7 2 5.2 6 5.2zm4.5-41.4h6.5l-6.2 8.3h-5zm21.4 19.7c0-1-0.5-1.3-1.5-1.3h-2.5v-5.5h6c2.8 0 4 1.3 4 3.8 0 1.2 0 3 0 3 1.5-2.8 5.3-7.5 12.5-7.5 7.7 0 11.2 4.2 11.2 12.4v14.3q0 1.5 1.5 1.5h2.8v5.4h-6.3c-3 0-4.2-1.2-4.2-4.2v-15.5c0-4.4-1-8.2-6.3-8.2-4.9 0-8.9 3.3-10.2 8q-0.7 1.9-0.7 4.5v15.4h-6.3zm40.9 0.3q0-1.5-1.5-1.5h-2.5v-5.2h6.3c2.7 0 4 1.2 4 4v21.9q0 1.5 1.5 1.5h2.7v5.2h-6.2c-3 0-4.3-1.2-4.3-4zm5-19.7h6.3l-6.3 8.3h-4.7z"/>
	</g>
</svg>